<svg xmlns="http://www.w3.org/2000/svg" xml:space="preserve" aria-labelledby="infravelo-logo infravelo-logo-desc" class="infravelo-logo" viewBox="0 0 210.081 76.451">
    <desc id="infravelo-logo-desc">
        InfraVelo Logo
    </desc>
    <style>
        .fill{fill:#005a6e}
    </style>
    <path d="M4.881 9.76a4.88 4.88 0 1 0-4.88-4.88v.01a4.8 4.8 0 0 0 4.88 4.87m174.72 39.22V2.17a.89.89 0 0 0-1-1h-6.11a.88.88 0 0 0-1 1v46.81a.88.88 0 0 0 1 1h6.13a.89.89 0 0 0 .98-1m-14.63-13.86a.88.88 0 0 0 1-1v-9c0-6.76-4.73-11.29-12.33-11.29q-1.084 0-2.16.14v7.39a4.4 4.4 0 0 1 2.23-.56c2.58 0 4.25 2 4.25 4.94v3c0 .35-.14.49-.49.49h-6v5.92zm.77 5.57a.89.89 0 0 0-.773-.994q-.069-.009-.137-.006l-6-.42c-.63-.07-.91.28-1.05.91a4.2 4.2 0 0 1-4.18 3.41c-2.5 0-4.25-2.09-4.25-4.95V14.36c-5.06 1.32-8.06 5.36-8.06 10.73v14.14c0 7 4.67 11.29 12.33 11.29 7.31-.04 11.07-3.35 12.12-9.83m-72.67-16.58a3.88 3.88 0 0 1 4.22-3.34c2.79 0 4.18 2.16 4.18 5.29v22.92a.89.89 0 0 0 1 1h6.13a.89.89 0 0 0 1-1v-23.2c0-7.94-5.16-12-12.06-12s-12 4-12.47 10.31c-.07.63.35 1 1 1h6.13c.53 0 .81-.35.87-.98m-19.29 24.87V15.34a.89.89 0 0 0-1-1h-6.13a.88.88 0 0 0-1 1v33.64a.88.88 0 0 0 1 1h6.13a.89.89 0 0 0 1-1m-41.49 0a.88.88 0 0 0 1 1h6.13a.89.89 0 0 0 1-1V25.65c0-7.53-3.21-11.64-9-11.64a11.3 11.3 0 0 0-5.29 1.26v6.13a5 5 0 0 1 2.09-.42c2.64 0 4.11 2 4.11 5.29zm-8.29 0V15.34a.89.89 0 0 0-1-1h-6.14a.88.88 0 0 0-1 1v33.64a.88.88 0 0 0 1 1h6.13a.89.89 0 0 0 .98-1zm107.29 0 9-46.5c.14-.7.14-1.26-.91-1.26h-6.41c-.69 0-1 .28-1.11 1l-8.27 47.74h6.62c.62 0 .9-.35 1.08-.98m64.09-27.65v-7.39c.7-.07 1.47-.14 2.23-.14 7.66 0 12.47 4.46 12.47 11.36v14c0 5.57-2.92 9.47-8.08 10.8V25.71c0-3-1.67-4.94-4.32-4.94a4.18 4.18 0 0 0-2.34.56zm-2.09 17.2V14.36c-5.08 1.39-8.08 5.29-8.08 10.8v14c0 7 4.67 11.36 12.4 11.36.77 0 1.53-.07 2.3-.14v-7.53a4.2 4.2 0 0 1-2.3.63c-2.69 0-4.32-1.95-4.32-4.95m-93.91-10h-1.88c-8.29 0-13.58 3.28-13.58 11.15 0 7.45 4.6 10.45 10.17 10.45a12.2 12.2 0 0 0 5.29-1v-6.07c-.883.36-1.826.55-2.78.56a4.22 4.22 0 0 1-4.39-4.46c0-3.13 2.09-4.67 5.29-4.67h1.88zm-23.51-5.25a8.5 8.5 0 0 1 3.76-.84c1.81 0 2.65 1 2.86-.21l1.11-6.48a.94.94 0 0 0-.42-1 5.9 5.9 0 0 0-2.85-.7 6.24 6.24 0 0 0-4.46 2.16zm-14.35-1.61h-3.49v-7.31h3.49a.88.88 0 0 1 1 1v5.36a.88.88 0 0 1-1 .95m59.91 28.29 3.48-20.13-4.8-27.66c-.14-.63-.42-1-1.12-1h-6.62c-1 0-1 .56-.9 1.26l9 46.53c.12.65.4 1 .96 1M60.891 7.88c-3.27 0-4.95 1.74-4.95 5.3v35.8a.88.88 0 0 1-1 1h-6.03a.89.89 0 0 1-1-1V21.67c0-.2-.07-.34-.35-.34h-2.07a.88.88 0 0 1-1-1v-5a.88.88 0 0 1 1-1h2.09c.28 0 .35-.14.35-.35v-1c0-7.6 4.32-12.06 12.68-12.06h.42a.88.88 0 0 1 1 1l-.13 5a.88.88 0 0 1-1.01.96m-52 41.1V15.34a.89.89 0 0 0-1-1h-6.08a.88.88 0 0 0-1 1v33.64a.88.88 0 0 0 1 1h6.13a.89.89 0 0 0 .98-1zM129.811 64.4a1.36 1.36 0 0 0 1.26-.86c.072-.171.109-.355.11-.54a1.35 1.35 0 0 0-.11-.52 1.5 1.5 0 0 0-.29-.44 1.363 1.363 0 0 0-1.51-.3c-.17.067-.323.169-.45.3a1.5 1.5 0 0 0-.29.44 1.35 1.35 0 0 0-.11.52c-.008.374.137.735.4 1 .262.27.624.419 1 .41M109.511 69.48v2.19h1.57l-.06.16a3.1 3.1 0 0 1-.64 1 3 3 0 0 1-1 .64 3.17 3.17 0 0 1-3.37-.64 3.09 3.09 0 0 1-.65-3.33c.149-.373.37-.712.65-1a3.1 3.1 0 0 1 1-.65 3.17 3.17 0 0 1 2.37 0h.08v-2.89a6.6 6.6 0 0 0-1.27-.13 5.8 5.8 0 0 0-2.27.45 6.1 6.1 0 0 0-1.88 1.24 5.9 5.9 0 0 0-1.28 1.84 5.4 5.4 0 0 0-.47 2.24 5.5 5.5 0 0 0 .47 2.25c.306.686.74 1.308 1.28 1.83a6.1 6.1 0 0 0 1.88 1.24 5.8 5.8 0 0 0 2.27.45 5.9 5.9 0 0 0 2.29-.45 6.2 6.2 0 0 0 1.88-1.24 5.8 5.8 0 0 0 1.27-1.83 5.5 5.5 0 0 0 .46-2.24v-1.13h-4.62zM158.871 70.48a2.56 2.56 0 0 0 1-.91c.257-.428.386-.921.37-1.42a3.2 3.2 0 0 0-.23-1.22 2.8 2.8 0 0 0-.68-1 3.1 3.1 0 0 0-1.13-.64 5 5 0 0 0-1.57-.23h-5.54v11.12h6a4.7 4.7 0 0 0 1.51-.23 3.2 3.2 0 0 0 1.14-.65c.316-.272.562-.615.72-1a3 3 0 0 0 .25-1.26 2.53 2.53 0 0 0-.49-1.61 3.1 3.1 0 0 0-1.36-1m-4.93-2.81h2.51a.86.86 0 0 1 .67.25.9.9 0 0 1 .22.64.85.85 0 0 1-.23.64c-.231.184-.526.27-.82.24h-2.35zm3.67 5.67a1 1 0 0 1-.82.28h-2.85v-2h2.85a1 1 0 0 1 .82.26 1 1 0 0 1 .23.69c.02.261-.062.519-.23.72M145.931 71.33l-4.97-6.22h-2.42v11.12h2.85v-6.2l4.96 6.2h2.41V65.11h-2.83zM133.871 71.2a2.65 2.65 0 0 1-.58 1.85 2.15 2.15 0 0 1-1.7.64 2.12 2.12 0 0 1-1.68-.64 2.7 2.7 0 0 1-.57-1.85v-6.09h-2.85v6.26c-.01.68.098 1.357.32 2a4.35 4.35 0 0 0 2.57 2.69 5.8 5.8 0 0 0 2.21.39 5.7 5.7 0 0 0 2.19-.39 4.38 4.38 0 0 0 2.59-2.69 5.9 5.9 0 0 0 .34-2v-6.26h-2.84zM123.831 72.22c.268-.255.497-.548.68-.87.18-.314.318-.65.41-1 .089-.373.132-.756.13-1.14a4.7 4.7 0 0 0-.25-1.56 3.46 3.46 0 0 0-.76-1.3 3.7 3.7 0 0 0-1.3-.88 4.9 4.9 0 0 0-1.85-.32h-5.43v11.12h2.83v-3h1.46l2.11 3h3.43l-2.41-3.36a3.9 3.9 0 0 0 1-.65m-1.61-2.46a1.2 1.2 0 0 1-.28.47 1.3 1.3 0 0 1-.48.32 2 2 0 0 1-.73.12h-2.49v-3h2.44c.446-.048.89.106 1.21.42.244.302.371.682.36 1.07a2 2 0 0 1-.08.56M194.1 65.1h2.9v11.1h-2.9zM187.081 65.11h-2.83v11.12h8.16v-2.75h-5.33zM162.311 76.23h8.54v-2.75h-5.69v-1.43h4.68v-2.58h-4.68v-1.59h5.69v-2.77h-8.54zM206.481 65.11v6.22l-4.96-6.22h-2.42v11.12h2.85v-6.2l4.96 6.2h2.41V65.11zM133.401 64.4c.182 0 .363-.037.53-.11.167-.067.317-.169.44-.3a1.5 1.5 0 0 0 .29-.45c.072-.171.109-.355.11-.54a1.35 1.35 0 0 0-.11-.52 1.5 1.5 0 0 0-.29-.44 1.2 1.2 0 0 0-.44-.3 1.3 1.3 0 0 0-.53-.11 1.4 1.4 0 0 0-.54.11 1.2 1.2 0 0 0-.44.3 1.3 1.3 0 0 0-.4 1c-.012.375.133.737.4 1a1.3 1.3 0 0 0 1 .41M181.151 72.22c.268-.255.497-.548.68-.87.18-.314.318-.65.41-1 .089-.373.132-.756.13-1.14a4.7 4.7 0 0 0-.25-1.56 3.46 3.46 0 0 0-.76-1.3 3.6 3.6 0 0 0-1.3-.88 4.9 4.9 0 0 0-1.85-.32h-5.43v11.12h2.84v-3h1.45l2.11 3h3.41l-2.41-3.36a3.9 3.9 0 0 0 1-.65m-1.61-2.46a1.3 1.3 0 0 1-.27.47 1.4 1.4 0 0 1-.49.32 2 2 0 0 1-.73.12h-2.43v-3h2.43a1.54 1.54 0 0 1 1.22.42c.236.306.36.684.35 1.07a2 2 0 0 1-.08.56" class="fill"/>
    <path d="M195.341 21.33v-7.39c.7-.07 1.47-.14 2.23-.14 7.66 0 12.47 4.46 12.47 11.36v14c0 5.57-2.92 9.47-8.08 10.8V25.71c0-3-1.67-4.94-4.32-4.94a4.2 4.2 0 0 0-2.3.56M193.291 38.53V14.36c-5.08 1.39-8.08 5.29-8.08 10.8v14c0 7 4.67 11.36 12.4 11.36.77 0 1.53-.07 2.3-.14v-7.53a4.2 4.2 0 0 1-2.3.63c-2.69 0-4.32-1.95-4.32-4.95" class="fill"/>
</svg>
